PathFileType	4	(X/Y/Z)	./resultDataOpenSim/trcMotMarkerGrf/sub10/qtm-15-07.trc
DataRate	CameraRate	NumFrames	NumMarkers	Units	OrigDataRate	OrigDataStartFrame	OrigNumFrames
250.000000	250.000000	9	24	m	250.000000	391	520
Frame#	Time	L.Toe.Tip			R.Toe.Tip			L.Ankle.Lat			R.Ankle.Lat			L.Ankle.Med			R.Ankle.Med			L.Heel			R.Heel			L.Knee.Lat			R.Knee.Lat			L.Knee.Med			R.Knee.Med			L.Thigh.Upper			R.Thigh.Upper			L.ASIS			R.ASIS			V.Sacral			L.Acromium			R.Acromium			C7			L.Elbow			R.Elbow			L.Wrist.Lat			R.Wrist.Lat
		X1	Y1	Z1	X2	Y2	Z2	X3	Y3	Z3	X4	Y4	Z4	X5	Y5	Z5	X6	Y6	Z6	X7	Y7	Z7	X8	Y8	Z8	X9	Y9	Z9	X10	Y10	Z10	X11	Y11	Z11	X12	Y12	Z12	X13	Y13	Z13	X14	Y14	Z14	X15	Y15	Z15	X16	Y16	Z16	X17	Y17	Z17	X18	Y18	Z18	X19	Y19	Z19	X20	Y20	Z20	X21	Y21	Z21	X22	Y22	Z22	X23	Y23	Z23	X24	Y24	Z24

391	1.56	0.78619077	0.088087556	-0.30146702	0.79307606	0.03941272	-0.15130444	0.69769527	0.18999119	-0.30635433	0.65636018	0.067312455	-0.099927092	0.7278547	0.19057757	-0.22597524	0.68093886	0.10050996	-0.17980338	0.63166357	0.19622636	-0.25467041	0.60223503	0.056093706	-0.14607544	0.91471318	0.49142649	-0.30331303	0.80396019	0.43894224	-0.035576331	0.9687595	0.44378133	-0.20076502	0.81725641	0.45438206	-0.16094157	0.83073911	0.84259692	-0.32490791	0.82509359	0.85162277	0.055387586	0.89398395	0.94736767	-0.2542914	0.89980289	0.94223488	-0.0098333489	0.69811477	0.97704603	-0.13065426	0.84950431	1.4443354	-0.27881678	0.8063951	1.4383995	0.01829731	0.76730317	1.4587407	-0.14322078	0.76108383	1.1911303	-0.49770793	0.71318084	1.1791075	0.23186301	0.94826895	1.1350431	-0.65937976	0.83268438	1.2471228	0.44604783
392	1.564	0.80377211	0.086344122	-0.30125146	0.79311033	0.039408344	-0.15129816	0.71221563	0.18564869	-0.30656491	0.65647433	0.067862044	-0.099992657	0.7417319	0.18703729	-0.22590895	0.68131279	0.10106639	-0.17970395	0.64578818	0.19020116	-0.25522001	0.6024761	0.056672758	-0.14614959	0.93153739	0.48851929	-0.30763038	0.80456856	0.43935334	-0.035297527	0.97646405	0.44531917	-0.19970975	0.81805061	0.45462297	-0.16096001	0.83764357	0.84352769	-0.32509428	0.82825972	0.85195776	0.055298084	0.89979798	0.9482023	-0.25380236	0.9037542	0.94274265	-0.0092682384	0.70307432	0.97753227	-0.13204814	0.85441397	1.4445883	-0.27886575	0.81087637	1.4383561	0.018748339	0.77192524	1.4591196	-0.14308163	0.76407186	1.1900126	-0.49563707	0.719331	1.1771043	0.23129431	0.95047602	1.130945	-0.65728913	0.84142204	1.243502	0.44453351
393	1.568	0.82156007	0.084596723	-0.30090487	0.79312281	0.039404947	-0.15128574	0.72691252	0.18123079	-0.30673788	0.65659473	0.06841009	-0.10006636	0.7558	0.18346442	-0.22579178	0.68153369	0.10162057	-0.1797465	0.66019364	0.18411512	-0.25546045	0.60258777	0.057330788	-0.14634637	0.95005528	0.48556713	-0.31222389	0.80519412	0.43974578	-0.035044399	0.98420481	0.44673585	-0.19864166	0.81877352	0.45487219	-0.16110796	0.84456778	0.84439415	-0.32529667	0.83138049	0.85225237	0.055183098	0.90561573	0.94895018	-0.25329171	0.90770614	0.94318525	-0.0087312848	0.70807823	0.97795422	-0.13360309	0.85935074	1.4447635	-0.27891015	0.81535396	1.4382363	0.019200904	0.7765605	1.4594234	-0.1429405	0.76714148	1.1888216	-0.49353953	0.72550996	1.1750502	0.2307321	0.95267351	1.1268856	-0.6551978	0.85016736	1.2398918	0.44296605
394	1.572	0.83941053	0.082849868	-0.30042654	0.79311725	0.039410454	-0.15126619	0.74177293	0.17676932	-0.30684663	0.6567171	0.068955792	-0.10014489	0.77002825	0.17986958	-0.22560846	0.68156877	0.10214839	-0.17992258	0.67483026	0.17801526	-0.25552025	0.60265526	0.058057981	-0.1465459	0.96574426	0.48409688	-0.31481414	0.80584326	0.44010923	-0.034821629	0.99232452	0.44813976	-0.19747689	0.81951578	0.4551098	-0.16128772	0.85151325	0.84519332	-0.32550759	0.83446724	0.85250981	0.055047992	0.91145015	0.94962285	-0.25277458	0.91165959	0.94356702	-0.0082234535	0.71324721	0.97833653	-0.13498329	0.86430768	1.4448661	-0.27894823	0.81982795	1.4380363	0.019653016	0.78120419	1.4596646	-0.1428119	0.77028623	1.1875439	-0.49140392	0.73165671	1.172986	0.23018066	0.95489767	1.1228863	-0.65309072	0.8589233	1.2363014	0.44134571
395	1.576	0.85719836	0.081112335	-0.29978095	0.79311352	0.039440357	-0.15123728	0.75679475	0.17229198	-0.3068668	0.65683463	0.0695088	-0.10021731	0.78436406	0.1762815	-0.22531433	0.68154354	0.10265594	-0.18011921	0.68962124	0.1719331	-0.25560867	0.60274915	0.058822879	-0.14667068	0.97722375	0.48440239	-0.31471116	0.8065219	0.4404434	-0.034631919	1.0010989	0.44960704	-0.196141	0.82050887	0.4553043	-0.16125807	0.85848312	0.84592217	-0.32571145	0.83752919	0.85273038	0.054899358	0.9172995	0.95022694	-0.25225839	0.91561393	0.94389054	-0.0077435644	0.71873319	0.97871363	-0.13557196	0.8692792	1.4449016	-0.2789787	0.82430737	1.4377526	0.020110091	0.78585196	1.4598478	-0.14270681	0.77348592	1.1861795	-0.48923228	0.73774767	1.170912	0.22964346	0.95715791	1.1189508	-0.65096189	0.86770264	1.2327321	0.43966732
396	1.58	0.87486378	0.079381173	-0.29893799	0.79314728	0.039504729	-0.15119463	0.7719754	0.16780675	-0.30678714	0.65695125	0.070066134	-0.10027614	0.79877911	0.17272713	-0.22487418	0.68156306	0.10315723	-0.18026384	0.70452857	0.16586674	-0.25581769	0.60287988	0.059587663	-0.14673718	0.98621277	0.48570041	-0.31286057	0.80723421	0.44076641	-0.034471589	1.0102471	0.45102008	-0.19468746	0.82188191	0.4554449	-0.16089569	0.86548023	0.84657886	-0.32589531	0.84056809	0.8529122	0.054735161	0.92315253	0.95075659	-0.25172576	0.91957268	0.94415554	-0.0072866255	0.72455887	0.9791009	-0.13503313	0.87426053	1.4448717	-0.27900088	0.82879946	1.4373876	0.020582082	0.79050639	1.4599762	-0.14262066	0.77672213	1.1847362	-0.48703271	0.7438069	1.1688055	0.22911839	0.9594449	1.1150713	-0.648814	0.87651772	1.229176	0.43792546
397	1.584	0.89242722	0.077652994	-0.29790565	0.79325213	0.039596436	-0.15112368	0.78730744	0.16331259	-0.30660554	0.6570817	0.07061129	-0.1003307	0.8133022	0.16920069	-0.22431509	0.68166051	0.103648	-0.18035984	0.71955216	0.15982725	-0.25606572	0.60301018	0.060333536	-0.14682982	0.99446723	0.48714322	-0.31054985	0.80798333	0.44109523	-0.034336973	1.0189605	0.4521003	-0.19331477	0.8233669	0.4555695	-0.16048979	0.87250147	0.84716227	-0.32605139	0.84358703	0.85306	0.054550553	0.92901426	0.95120068	-0.25114705	0.9235424	0.94436189	-0.0068450718	0.73048184	0.9794687	-0.13395684	0.87924493	1.4447775	-0.27901516	0.83329682	1.4369498	0.021074802	0.79517306	1.4600489	-0.14254086	0.77998853	1.1832215	-0.48480435	0.74987778	1.1666527	0.22859822	0.96174974	1.1112385	-0.64665268	0.88537853	1.2256253	0.43611621
398	1.588	0.90996259	0.075942242	-0.29671158	0.79343593	0.039697269	-0.15100453	0.80278322	0.15881185	-0.30632242	0.65724277	0.071135539	-0.10040273	0.82805414	0.16568158	-0.22369562	0.68189008	0.10411031	-0.18041821	0.73471359	0.15384562	-0.25621684	0.60308604	0.061078607	-0.14704347	1.002555	0.48831432	-0.30856454	0.80877154	0.4414226	-0.034230251	1.0267869	0.45276131	-0.19215743	0.82460549	0.4557101	-0.16040944	0.87953504	0.84767061	-0.32618245	0.84659978	0.85318229	0.054350581	0.93489209	0.95155605	-0.250521	0.9275267	0.94451015	-0.0064165832	0.73617412	0.97975661	-0.13341452	0.88422575	1.4446242	-0.27901961	0.8377815	1.4364445	0.021584949	0.79985715	1.4600591	-0.14246081	0.78329041	1.1816422	-0.4825368	0.75598823	1.1644517	0.22807821	0.96406444	1.1074418	-0.64448519	0.8942915	1.2220807	0.43423914
399	1.592	0.92753942	0.074279254	-0.29537124	0.79364317	0.039780122	-0.15086617	0.81839819	0.15431178	-0.30593882	0.6574491	0.071639627	-0.10051558	0.84329116	0.16218966	-0.22307978	0.68226416	0.10453649	-0.18045023	0.75003521	0.14790898	-0.25622486	0.6030812	0.061853601	-0.14739819	1.0105047	0.48917142	-0.30704811	0.80960191	0.44172255	-0.034152791	1.0341087	0.45324552	-0.1911345	0.82564307	0.45583793	-0.16060107	0.88656839	0.8481031	-0.32629871	0.84962373	0.85328004	0.054148748	0.94076332	0.95183044	-0.2498827	0.93152179	0.94459856	-0.0060091014	0.74153328	0.97988663	-0.1339203	0.88921003	1.4444192	-0.27900399	0.84226633	1.4358643	0.022097056	0.80456193	1.4600025	-0.14238321	0.78664099	1.1800071	-0.48022816	0.76214125	1.1622082	0.22755719	0.96638143	1.1036735	-0.64231512	0.90324947	1.2185528	0.43230131
